<?xml version="1.0" encoding="UTF-8" standalone="no"?>
<svg
   viewBox="0 0 510.25 602.8"
   version="1.1"
   id="svg172"
   sodipodi:docname="favicon.svg"
   inkscape:version="1.1.2 (0a00cf5339, 2022-02-04)"
   xmlns:inkscape="http://www.inkscape.org/namespaces/inkscape"
   xmlns:sodipodi="http://sodipodi.sourceforge.net/DTD/sodipodi-0.dtd"
   xmlns="http://www.w3.org/2000/svg"
   xmlns:svg="http://www.w3.org/2000/svg">
  <defs
     id="defs176" />
  <sodipodi:namedview
     id="namedview174"
     pagecolor="#505050"
     bordercolor="#eeeeee"
     borderopacity="1"
     inkscape:pageshadow="0"
     inkscape:pageopacity="0"
     inkscape:pagecheckerboard="0"
     showgrid="false"
     inkscape:zoom="1.0418049"
     inkscape:cx="255.32611"
     inkscape:cy="301.87993"
     inkscape:window-width="1920"
     inkscape:window-height="1171"
     inkscape:window-x="0"
     inkscape:window-y="360"
     inkscape:window-maximized="1"
     inkscape:current-layer="svg172" />
  <g
     fill="#06361e"
     id="g170"
     style="fill:#ffffff">
    <g
       transform="translate(-12.75 -13.47)"
       id="g140"
       style="fill:#ffffff">
      <path
         d="m128.55 579.63c.08.65.82.94 1.12 1.06 4.16 1.7 3.85 5.47 4 8.9.09 1.87-.95 3.13-2.87 3.93-3.46 1.45-6.77 3.26-10.18 4.87a17.11 17.11 0 0 1 -3.18 1.18c-2.54.68-5.12 1.24-7.72 1.67-3.66.5-6 2.62-7.61 5.76-.64 1.22-1.32 4.49-1 9.27-2.82-2.73-7.15-10.88-7.21-14.93 0-4.23 4.56-5.25 6.31-8.67 0 0-7.69-1.76-9.26-4.44 3.48-5.09 7-7.64 10.67-11.06 1.19-1.13 3.1-1.6 4.75-2.13 2.26-.72 4.62-1.18 6.9-1.79a7 7 0 0 0 3.84-2.64 7 7 0 0 0 1.33-4.48c-.15-2.62-2.34-5-5.89-4.93a78 78 0 0 0 -12.75 1.59c-5.85 1-6.79.61-9.3-4.83-1.51-3.28-3.12-6.5-4.79-9.71-.67-1.29-.47-2.11.78-2.79a11.47 11.47 0 0 0 2.2-1.46c2.79-2.4 5.68-2.94 8.85-.72a4.07 4.07 0 0 0 1.06.33c1.34-1.47 1.59-2.45-.53-3.61a35.15 35.15 0 0 1 -6.17-4.47c-7.37-6.47-8.14-14.7-4.12-23.22a8.62 8.62 0 0 1 3.92-4c.69 1.59 1.11 2.52 1.49 3.46 2.93 7.08 6.53 13.73 13.23 18 5.2 3.29 10.52 6.4 15.9 9.38a17.37 17.37 0 0 1 8.92 11.85c.55 2.6-.79 5.62-1.31 8.44-.2 1.1-.5 2.19-.94 4a64.62 64.62 0 0 0 7.74-1.84c19.36-7.35 30-24.11 28.81-45.24-.59-10.26-2.72-20.15-9.22-28.4-2.95-3.74-6.77-6.85-10.47-9.93-4.33-3.62-7.51-7.64-6.71-14.38 2.29 1.52 4.56 2.63 6.34 4.28 5.66 5.24 11.38 10.47 16.57 16.16 2.55 2.79 4.55 5.91 6.86 9 4.15 7.12 8 26.22 4.1 39.86-2.34 8.13-5.12 16.17-10.67 22.77-5 6-15.63 15.59-24.93 19.15-2.35.9-4.65 1.34-5.93 2-1.07.58-.99 1.37-2.93 2.76zm-24.62 8.37c2.83-3.24 6.77-5.18 8.52-9.73-3.49-.23-6.34.48-8.41 2.52s-1.66 4.42-.11 7.21zm19.32-11.82.33-.92c3.3-7.59 2.89-11.39-1.58-14.65-1.33.71-2.09 1.58-1 3.11 1.61 2.31 1.68 4.85 1.33 7.56-.2 1.35.92 4.92.92 4.92zm-27.25-19.61c4.4-1.59 7 1.41 10.65-1.07l.93-.71-11.58-3.68c-2.54-.82-1.67 3.08 0 5.46z"
         id="path2"
         style="fill:#ffffff" />
      <path
         d="m143.08 327.69c-1.33 5.28-2.5 10.62-4 15.86-.7 2.4-1.65 4.59-.26 6.58 3.26 0 6.32-.45 9.16.11 6.71 1.32 14.62 7.86 15 14.66.49 8.55-1.21 17.43-1.36 26-.19 9.2 2.19 17.37 9.06 23.77 1.1 1 3.76 1.54 5.25 1.62a55.35 55.35 0 0 0 8.23-.66c5.15-.61 7.67-3.93 8.62-8.72a25.89 25.89 0 0 0 .44-6.63c1.24 1.23 6.26 1.85 7.24 8.56 1.27 5.42 1.72 8.24-.35 13.25a13.8 13.8 0 0 1 -3.62 4.1c-3.82 2.59-5.61 3.54-10.33 4.56a6.88 6.88 0 0 1 -3.79.08c-1.52-.4-3.19 1.51-3 2.63 4 1 7.39 2.54 8.06 6.72-4.48 1.34-8.51 2.75-12.63 3.73-6.35 1.5-11.43-1.33-16.15-5.12-1.14-.92-2.94-2.41-3.75-2.05-1.91.82-1.26 2.9-1 4.7.86 6.24-2.08 10.88-6.45 14.82-.36-.06-.62 0-.7-.13-5.47-6.78-13.25-11.53-17-19.88s-5.42-17.06-3.6-26.23q1.5-7.59 3.07-15.16a9.24 9.24 0 0 0 -.49-5.78c-.77-1.82-1.29-3.1-3-4.1a3.89 3.89 0 0 0 -1.83-.44 6.67 6.67 0 0 0 -1.65.42c-4.85 2-5.62 5-3.91 9.92a6.54 6.54 0 0 0 .82 1.78c3.88 5.17 4.07 10.8 2.77 16.95-1.77 8.4-.07 16.46 4 23.86 2.7 4.88 6.11 9.34 8.94 14.14a15.1 15.1 0 0 1 1.94 6.05c.72 7.73-2.09 14.66-5.31 21.58-5-1.29-8.86-3.74-10.94-8.22-.45-1-3.95-.57-4 1.32-.51 9.82-.2 18.27-8 24.42-5.77 4.57-12.78 4.25-19.53.93a3.64 3.64 0 0 1 .33-1.19c9.82-11.49 11.84-24.9 9.25-39.11-1.89-10.37-4.81-20.55-7-30.87-2.66-12.43-4.91-24.92-4.52-37.77.2-6.74 1.75-13 6.29-18.24a30.57 30.57 0 0 0 4.37-5.87c3-6 8.83-7.14 14.42-8.59 2.13-.55 3-1.57 3.1-3.61 0-1.12.38-2.22.53-3.33 1-7 4.22-12.17 11.19-14.95 5.19-2.07 10.09-4.84 15.12-7.3.32-.14 1.48-.81.97.83zm5.83 30.9a10.47 10.47 0 0 0 .46 1.54 34.63 34.63 0 0 1 2.32 24.55c-.53 1.95 1.87 4.56 3.85 4.18a2.28 2.28 0 0 0 1-.56 2.34 2.34 0 0 0 .59-.93c.53-8.5 1.31-21.12-1.37-25.31-.69-1.85-3.94-4.78-6.8-3.47zm-51.29 61.87s2.29-2.8 2.27-4.08a22.58 22.58 0 0 0 -.83-6.64 34.77 34.77 0 0 1 -.84-19.05c.18-.81-.83-2.62-1.41-2.7a3.86 3.86 0 0 0 -3.16 1.36 8.31 8.31 0 0 0 -.81 4.63c.73 6.94 1.58 13.88 2.63 20.78.3 1.95 1.43 3.79 2.17 5.7zm46-56.38c1.61 6.12 1.15 10.19 1.19 15.06 0 3.18.22 4.24 3.4 5.57 1.21-1.95 1.71-4.74 1.21-5.63a7.39 7.39 0 0 1 -.54-3.74c.07-4.41-.35-8.68-2.84-12.53-.04 0-2.97-.76-2.44 1.27zm-7 54.28c-3.26 1.57-4 5.77-2.3 10.66 1.52 4.29 5.49 8.64 8 8-4.32-5.44-4.94-12.02-5.72-18.66zm-21.62-39.36c4.51-5.56 9.33-6.23 14.88-1.65.25-1.36.6-2.83 0-3.39-1.86-1.9-3.83-4-7-3-1.7.51-3.49.75-5.18 1.31-3.46 1.19-4 2.52-2.71 6.8zm1.38-13.86a19.62 19.62 0 0 0 3 .33 63.09 63.09 0 0 0 7-.9c.88-.18 1.62-1 2.43-1.58-1-2-1.88-2.12-2.66-2-3.21.58-6.68.77-9.77 4.23zm2.4-9 7.6-.5c-2.64-3.34-3.2-3.3-7.63.55z"
         id="path4"
         style="fill:#ffffff" />
      <path
         d="m391.12 512c9.79-1.1 11.83 4.45 11.83 4.45-4.33.19-5.5 2.49-7.36 3.52-1.51.88-9.35 6.5-14.53 9-6.39 3.13-13.93 1.82-20.67 2.64-12.21 1.49-22.36-2.55-33.32-4.46a30.52 30.52 0 0 0 -8.29-.32 5.29 5.29 0 0 0 -5 4.75c-.38 2.56 1.28 3.63 3.73 4.12a83 83 0 0 0 24.64.9c15.05-1.48 30-2.44 44.71-.76 12.8 1.45 24.39 4.83 33.63 11.9 2.58 2 4.74 4.39 7.1 6.61 2.39 2.49.57 2.1-1.46 3.2a32 32 0 0 1 -4.57 1.78c.88 1.32 2.73 2.2 3.68 3.33 2.3 2.61 2.68 6.13 3.38 9.42a20.69 20.69 0 0 1 -.49 10.19 14.17 14.17 0 0 1 -1.64 3.6c-2.2 3.6-4.77 4.83-9.3 4.58-2-.12-5.24-.55-7.59.76.23-1 1.91-3.25 2.32-4.24 4.37-8.36.53-14.46-6-19.14a30.79 30.79 0 0 0 -12.92-4.83c-14.13-2.19-28.63-3.33-42.74-5.63-21.67-3.5-42.79-8.2-62.53-15.8-12.39-4.76-24.75-9.4-35.81-16-4.68-2.78-10.5-4.32-15.79-6.43-.59-.23-1.15-.54-1.71-.79-4.21-1.74-14.28-2.24-14.15-6.8 2.45-14.69-6.12-14.69 6.2-18.15 3.26-.78 5.78 1.44 7.85 2.54 18.79 10.09 40.3 16.66 63.25 19.34a133 133 0 0 0 57.19-5.23c6.24-2 12.25-4.47 17.34-8.43a16.48 16.48 0 0 0 4.22-4.5 12.73 12.73 0 0 0 1.89-5.32c.49-4.5-1.47-7.63-6-9.5-2.32-.95-4.73-1.75-7.82-3 2.71-1.43 4.83-2.89 7.2-3.74 13-4.75 25.65.8 27 11.88.9 7.23.21 14.39-5.63 21.12-.75 1.12-2.36 2.28-1.84 3.44zm-24.78 2.66a28.88 28.88 0 0 0 3.4-1c3.92-1.48 16.16-14.46 17-19.67a4.08 4.08 0 0 0 -.5-3 3.62 3.62 0 0 0 -2.8 2.19c-.48 2.39-1.59 6.85-4.35 9.92a94.32 94.32 0 0 1 -12.73 11.55zm-61.82 22.61c-.27-.91-.72-1.43-1.08-2.37-.91-2.24-1.08-4.85 1.54-7 .87-.74.93-2.14 1.36-3.23-2.84 1.56-7.54.71-7.53 4.43a30 30 0 0 0 1.49 7.59c.33.74 1.81.79 4.22.63zm-12.07-3s-.4-4.7-.27-5.92a31.75 31.75 0 0 1 1.74-5.49 61.06 61.06 0 0 0 -6 3.37c-.6.46-2.12 2.59-1.65 3.58.59 1.29 3.1 3.57 6.18 4.49zm75 5.22c1.15 2.56 11.61 3.44 17.91 2.19l1-.33zm-4.86 9.28 20.09 1.57c-5.91-3.48-12.83-3.18-20.08-1.55zm-77.84-25.06c.33-.37-1.61.11-2 .24-2 .76-2.85 3.69-3.14 5.58 0 1.38 1.49 1.9 3.1 2.05.07.03-3.03-2.02 2.08-7.84z"
         id="path6"
         style="fill:#ffffff" />
      <path
         d="m221.12 488.32c-3.35 1.34-6.19 2.6-9.11 3.61-1.57.54-1.78 1.29-1.65 2.9a106.19 106.19 0 0 1 .51 14.8c-.3 5.07-2.93 8.74-7.4 11.9-4 2.82-6.31 3.58-12.31 3.56a6.83 6.83 0 0 1 -3.56-1.15c-2.44-1.33-2.91-1.7-6.33-3.74 2.38-2.43 4.55-4.73 6.79-7 5-4.91 5.82-12.91 1.15-18.22-3.16-3.61-7.12-6.55-10.89-9.59-4.49-3.63-9.17-7-13.71-10.59a3.67 3.67 0 0 1 -1.18-2c-2.59-5.65-9.23-10.24-4.34-17.58a14.65 14.65 0 0 0 1.22-2.45c.23-1.69-.18-2.77.53-3.83s3.07.78 4.6 1.23c2 .56 3.9 1.27 5.89 1.72 5.57 1.28 11.32 2 16.71 3.77 8.89 3 17.74 6.37 23.1 14.92a20.05 20.05 0 0 1 1.49 3c1.74 4.14 3.53 8.22 6.78 11.49a14.49 14.49 0 0 1 1.71 3.25zm-14.12-16a124.24 124.24 0 0 0 -11.15-9.22 5.24 5.24 0 0 0 -3.11-1.13 5.34 5.34 0 0 0 -3.19.92c5.67 4.47 11.33 8.89 17 13.33-.04 0 1.65-2.84.45-3.9zm-8.26 3.16c-6-5-8.56-6.8-13.3-9.31 0 0-3.58-1-.7 1a107.12 107.12 0 0 1 14.09 11.62c.41.4 1.03-2.37-.09-3.31z"
         id="path8"
         style="fill:#ffffff" />
      <path
         d="m222 520.3c1 .45 4.67 2.53 5.68 2.89 10 3.54 19.41 8.07 27.69 14.75a39.17 39.17 0 0 1 14.63 26.18 16.4 16.4 0 0 1 -8.26 16.55 16.29 16.29 0 0 1 -6.19 2c-5.65.66-9.63-2.48-12.91-6.63-1.85-2.35-3.41-4.93-5.6-8.12a28.68 28.68 0 0 0 -.58 3.11 44.36 44.36 0 0 0 .31 6.2c.57 6.07 4.62 10.41 9.88 12.68a39.84 39.84 0 0 0 9.93 3c2.51.47 7.7 1 10.48-.3a19.79 19.79 0 0 0 6.63-4.68c6.16-7.08 6.73-12.75 6.26-20.8-.69-11.25-6.32-19.79-14.24-26.57-6.18-5.31-13.66-9.24-20.93-13.11-5-2.66-10.64-4.19-16-6.12a20.82 20.82 0 0 0 -3.76-.64z"
         id="path10"
         style="fill:#ffffff" />
      <path
         d="m134.16 525.06c4.15 3.27 8.27 3 12.33.65 4.69-2.73 6.4-7.32 5.72-12.25-.94-6.91-2.72-13.7-4.19-20.53-.55-2.52-1.25-5-1.88-7.49 0 0-.6-2.61.73-.24a40.64 40.64 0 0 1 2.31 5.07c3.21 8.15 6.56 16.26 9.46 24.53a21.46 21.46 0 0 1 .83 8.54c-.65 8.54-11.14 15.27-19.41 12.71-3.84-1.2-6.57-6.05-5.9-10.99z"
         id="path12"
         style="fill:#ffffff" />
      <path
         d="m221.46 548.44c9.55-1.19 11.93-6.25 6.54-14-1.78-2.55-4.38-4.53-6.62-6.76-.48-.48-1-.89-2.07-1.75a14.83 14.83 0 0 1 2.74-.22c6 .16 15 8.51 15.65 16.63a9.38 9.38 0 0 1 -1.39 5.79 9.49 9.49 0 0 1 -4.58 3.81c-3.47 1.39-7.29.12-10.27-3.5z"
         id="path14"
         style="fill:#ffffff" />
      <path
         d="m256.28 471.05c8.57 8.56 7 15.42-4.3 18.92-3.73 1.16-6.63 1.38-11.78 1.6-3 .09-7.06-1.55-8.52-.71a84.53 84.53 0 0 1 10.72 3.91c10.47 3.83 18.37 2.38 25.32-5.15a11.89 11.89 0 0 0 1.48-14.15c-2.39-4.02-8.38-7.16-12.92-4.42z"
         id="path16"
         style="fill:#ffffff" />
      <path
         d="m128.82 503.6c6 6.09 10.26 3.14 11.72-8.15.47-3.73 1-8.3.2-11.31a5.69 5.69 0 0 1 -.14-3.2 8.85 8.85 0 0 1 1.65 1.85c3.83 7.08 3.44 19.25-.87 27.37a10 10 0 0 1 -4.11 4.37 5.2 5.2 0 0 1 -4.76.12c-2.72-1.35-4.12-5.41-3.69-11.05z"
         id="path18"
         style="fill:#ffffff" />
      <path
         d="m191.39 531.13c1 3 3.37 4.77 1.29 7.53-1.29 1.71-3 2.59-4.78 1.58s-1.34-3-.32-4.47 2.21-2.68 3.81-4.64z"
         id="path20"
         style="fill:#ffffff" />
      <path
         d="m479.06 496.86c3.52 2.63 7.65 2.89 7.41 7.74-.15 3-1.48 5.38-4.3 5.58s-3.89-2.38-3.89-4.93.46-4.86.78-8.39z"
         id="path22"
         style="fill:#ffffff" />
      <path
         d="m187.2 533.05c-1.18 2.8-1.52 4.88-3.29 6.25a3.32 3.32 0 0 1 -5.24-1c-1.36-2.62 8.53-5.25 8.53-5.25z"
         id="path24"
         style="fill:#ffffff" />
      <path
         d="m474.37 504.52c.21-2.34 3.4 4.73 2.42 7.72-1 3.17-3.68 3.3-6.86 3 0-.04 3.92-4.9 4.44-10.72z"
         id="path26"
         style="fill:#ffffff" />
      <path
         d="m492.22 528.66c-2.33 6.55.42 11.52-2.12 14.69-2.42 3-5.52 2.89-8.8 2.71-6.58-.37-15.87-2.82-20.09-8.59-1.11-1.52-2.32-1.79-3.67.12 2.6 2.63 4.63 6 8.53 7.14 6.52 1.85 10 7 13.56 12.17 4.69 6.8 2.79 15.91-1.56 21.14-1.37 1.65-2.36 1.58-3.71-.17-.6-.76-1.12-1.59-1.81-2.59-1.71 4.15-2.77 8.53-7 10.43-3.08 1.36-6.26.51-9.29-.59-6.12-2.25-8.8-6.29-7.58-11.81.72.58 1.37 1 1.95 1.55 2.4 2.14 4.93 3.09 8.14 1.7s5.24-3.51 5.87-6.88a63.29 63.29 0 0 0 .62-6.34c.52-6.06-2.78-10.51-6.64-14.39a164.52 164.52 0 0 0 -14.28-12.64c-6.27-5-13.68-6-21.44-5.63-4.85.2-9.72.17-14.59 0-1.35 0-3.66-.62-3.82-1.32-.39-1.85 1.71-2.31 3-2.88 7.76-3.4 15.94-3.81 24.25-3.08a123 123 0 0 1 25.81 5.6c4.29 1.35 6.59 2.22 10.9 3.55 3 .92 9.47 3.55 12.57 4.2a6.82 6.82 0 0 0 8-4.24c1.25-3.13 3.2-3.85 3.2-3.85zm-18 27.47c.41 4.18.79 8.58 1.32 13 .09.76.81 1.44 1.46 2.55.49-4.61-1.63-14.82-2.8-15.51zm-21.17-20.08c.25-1.65 2.24-3.14.17-4.54-1.7-1.27-2.67-.07-3.12.68-1 1.56.14 3 2.93 3.86zm-9.58-8.15s-4.44-1.22-5.3-.88c2.89 2.68 4 5.83 3.82 4.38a4.57 4.57 0 0 1 1.5-3.5zm4.21.34c-3.09 1-4.08 3.62-1.2 6.33.02 0-.63-2.57 1.22-6.33z"
         id="path28"
         style="fill:#ffffff" />
      <path
         d="m462.75 445.76c-1.32 2.86-3 6.39-5.68 8.28a5.16 5.16 0 0 1 -5.51.68c1.46-1 2.67-1.92 4-2.7a18.29 18.29 0 0 0 5.5-5.12 3.85 3.85 0 0 1 1.13-.78z"
         id="path30"
         style="fill:#ffffff" />
      <path
         d="m446.39 457.56c-2.24-.15-3.08-1-2.82-2.85a2.51 2.51 0 0 1 2.69-2.3c1.26 0 1.89.58 2.16 2.16 0 .24.08.47.11.71.26 2.2.05 2.43-2.14 2.28z"
         id="path32"
         style="fill:#ffffff" />
      <path
         d="m445.75 464.71c-1.69-.11-2.41-.92-2.3-2.6s.86-2.6 2.28-2.52a2.65 2.65 0 0 1 2.75 3.11c-.08 1.45-.97 2.12-2.73 2.01z"
         id="path34"
         style="fill:#ffffff" />
      <path
         d="m442.56 457.8c-.3.44-.53 1.21-1 1.36a2.17 2.17 0 0 1 -2.63-.82 4.13 4.13 0 0 1 -.29-3.88 2.15 2.15 0 0 1 1.66-1 1.94 1.94 0 0 1 .87.31 2 2 0 0 1 .64.68 18.81 18.81 0 0 1 .75 3.35z"
         id="path36"
         style="fill:#ffffff" />
      <path
         d="m450.86 446.17c1.28.09 2.05.83 2 2a2.67 2.67 0 0 1 -3 2.39c-1.22-.06-2.12-.78-2.1-1.66a2.94 2.94 0 0 1 3.1-2.73z"
         id="path38"
         style="fill:#ffffff" />
      <path
         d="m453.32 458c1.63.11 1.95.36 1.89 1.45-.13 2-1.07 3.07-2.65 3a2.14 2.14 0 0 1 -2.16-2.55c.11-1.55.86-2.03 2.92-1.9z"
         id="path40"
         style="fill:#ffffff" />
      <path
         d="m442 448.6c.1-1.52.88-2.27 2.22-2.17a1.85 1.85 0 0 1 1.84 2.25 2.14 2.14 0 0 1 -2.42 2.17c-1.26-.08-1.8-.85-1.64-2.25z"
         id="path42"
         style="fill:#ffffff" />
      <path
         d="m469.09 465.83a38.32 38.32 0 0 1 2.68-26.59c3.09-6.41 6.05-12.9 9.39-19.18 4.07-7.63 5.75-15.87 7.16-24.21.74-4.2 1.07-8.47 1.59-12.71.63-5.26.86-12.27-1.79-16.73-.49-.83-3 .48-3.12 1.36a11.46 11.46 0 0 0 .63 5.31 14 14 0 0 1 .66 8.58 62.37 62.37 0 0 1 -5.08 14.45c-3 5.91-11.12 9.92-13 14.5 0 0 .78-9.88.3-12.61-.43-2.44-4.57 1.45-6.75 1.63a7.48 7.48 0 0 1 -4.75-1.05 7.38 7.38 0 0 1 -3.09-3.72 91 91 0 0 1 -2.9-9.73c1.65 0 2.67 0 3.67.09 8.73.91 14.28-4.17 17.71-11.06 2.88-5.79 2.53-11.92 1.66-18.12-.83-6-1.45-12.09-2-18.15a3.35 3.35 0 0 1 .31-1.49 3.47 3.47 0 0 1 .94-1.21c3.28-1.95 6.64-3.7 10.08-5.35a3.06 3.06 0 0 1 2.49.5c3.54 2.42 4.7 6.22 5.66 10.1 2.42 9.82 5.21 19.57 7.13 29.48 1.19 6.16 1.34 12.57 1.5 18.88.15 7-.33 13.93-.4 20.88-.09 11.67-2.63 22.95-5.35 34.2-1.22 5.12-2.65 10.23-4.21 15.26-1.33 4.27.28 8.28.68 12.4a16.68 16.68 0 0 0 .62 3.5c.51 1.64.31 2.83-1.28 3.83a2.16 2.16 0 0 0 -.55 1 2.31 2.31 0 0 0 0 1.14 39.27 39.27 0 0 0 6.32 15.36 21 21 0 0 1 -4-.14 32.23 32.23 0 0 1 -5.9-1.83c-6.62-2.9-11.23-7.6-12.35-14.94a17 17 0 0 1 .49-5.78c.42-2 1.32-3.9 1.79-5.89.23-1 .36-2.49-.19-3.05s-2-.3-3-.11a27 27 0 0 0 -3.73 1.2zm2.6-11.62.28-.5c2.06-2.92 4.36-5.17 5-8.86.57-3.27.77-6.76 3.87-9.08.66-.48.82-1.67 1.06-2.55.48-1.74.79-3.53 1.29-5.27.82-2.77 1.73-5.52 2.7-8.52-.38.07-.52.08-.66.42-4.12 9.47-8.34 18.91-12.35 28.43-.8 1.8-.82 3.94-1.19 5.93zm17.31-96.74c.94 0-.82-2.69-2.67-2.16a55.56 55.56 0 0 0 -8 2.83c-1.18.54-.56 3.06-.56 3.06s6.67-3.78 11.23-3.73zm-12-7.29a5.81 5.81 0 0 0 6.51 1c3.85-1.9 3.85-1.9 3.57-4.1-3.33.73-4.55 1.77-10.03 3.1zm7.86-8s-2.16-4-3.47-3.94-3.25 4.3-3.25 4.3c2.41 1.66 4.23.01 6.77-.38z"
         id="path44"
         style="fill:#ffffff" />
      <path
         d="m373.25 260.67c.3-2.14 9.94 1.73 14.79 3.07 12.08 3.47 23.27 7.26 34.84 11.08 5.5 1.81 10.81 4.19 16.3 6a50.62 50.62 0 0 1 19.72 12.53 193.61 193.61 0 0 1 18 19.86c2.08 2.73 2.21 3.21-.24 5.53-1.89 1.78-4.05 3.28-6.06 4.94-1.39 1.15-2.41.72-3.33-.61-2.6-3.78-5.19-7.57-7.83-11.32a26.8 26.8 0 0 0 -3.25-4c-4.44-4.2-8.88-8.43-13.53-12.36-2.28-1.9-5.11-3.18-7.67-4.68-10.42-6-21.1-11.39-32.61-15-7.72-2.41-19.41-6.17-27.17-8.52-4.91-1.51-2.39-4.5-1.96-6.52z"
         id="path46"
         style="fill:#ffffff" />
      <path
         d="m441.35 302.63a28.77 28.77 0 0 1 2.51 3.68 3 3 0 0 1 .18 1.19 2.92 2.92 0 0 1 -.33 1.16c-2.76 4.44-2.15 8.54.19 13.12 5.75 11.39 12.43 13.17 24.42 8.86a27 27 0 0 0 9-5.58c10.21-9.55 16.24-21.21 16.28-35.38 0-7.32-2.64-14.07-5.43-20.73-.55-1.3-1.5-2.54-1.7-3.9a6 6 0 0 1 .67-4.08c.38-.53 2.69-.36 3.57.27a9.1 9.1 0 0 1 3.43 4.05 65.25 65.25 0 0 1 2.86 11.43c1.72 11.8 1.14 23.46-4.47 34.25-6.31 12.08-15.56 21.13-29.12 24.95a27.2 27.2 0 0 1 -17.14-.9 14.44 14.44 0 0 1 -5.78-3.69 14.23 14.23 0 0 1 -3.41-5.91 25.66 25.66 0 0 1 4.27-22.79z"
         id="path48"
         style="fill:#ffffff" />
      <path
         d="m478.21 113.25a21.87 21.87 0 0 1 -2.09-2.68 2.33 2.33 0 0 1 -.21-.9 2.2 2.2 0 0 1 .17-.91c1.75-3.6 1-6.72-1-10.1-5-8.41-10.06-9.36-18.64-5.27a19.93 19.93 0 0 0 -6.31 4.87c-6.93 8-10.64 17.39-9.74 28.32.46 5.64 2.87 10.68 5.37 15.63a14.07 14.07 0 0 1 1.51 2.9 4.78 4.78 0 0 1 -.23 3.19c-.25.43-2 .44-2.66 0a7 7 0 0 1 -2.8-2.9 52.58 52.58 0 0 1 -2.86-8.63c-2-9-2.38-18 1.08-26.69 3.87-9.72 10.13-17.28 19.91-21.1a19.46 19.46 0 0 1 12.74-.4 10.75 10.75 0 0 1 4.55 2.49 11.26 11.26 0 0 1 2.92 4.35 20.52 20.52 0 0 1 -1.71 17.83z"
         id="path50"
         style="fill:#ffffff" />
      <path
         d="m327.4 239.48a20.29 20.29 0 0 0 2.82-1.73 1.86 1.86 0 0 0 .5-1.6c-.89-3.74.62-6.29 3.54-8.67 7.23-5.93 12.64-5.2 20.41 1.08a21.8 21.8 0 0 1 5.24 6.28c5.09 9.26 6.54 18.74 2.89 28.17-1.89 4.87-5.62 8.6-9.42 12.23a11.76 11.76 0 0 0 -2.27 2.11 3.9 3.9 0 0 0 -.57 2.9c.15.46 1.91 1 2.73.84a6.83 6.83 0 0 0 3.59-1.71 43.28 43.28 0 0 0 5.09-6.79c4.34-7.35 6.94-15.27 5.58-24-1.54-9.83-6-18.48-15.11-24.9a24 24 0 0 0 -12.94-4.29 11.84 11.84 0 0 0 -5.24.8 10.15 10.15 0 0 0 -4.07 3 16.82 16.82 0 0 0 -2.77 16.28z"
         id="path52"
         style="fill:#ffffff" />
      <path
         d="m451.16 364.64c-6.48-.15-14-7.09-14.6-12.88-.26-2.37.22-3.63 2.12-4.39a3 3 0 0 1 3.51 1.58c1 2.71 3.19 3.8 5.4 5a8.84 8.84 0 0 0 4.1 1.18 8.94 8.94 0 0 0 4.17-.87 7.13 7.13 0 0 0 3.19-3.49c1.38-3.26 2.29-6.71 3.48-10a3.79 3.79 0 0 1 4.73-2.2c1.89.6 2.06 2.17 1.67 3.67-1.12 4.29-2 8.7-3.73 12.78-2.64 6.31-7.77 9.53-14.04 9.62z"
         id="path54"
         style="fill:#ffffff" />
      <path
         d="m388.43 244.68c1-3.31-1.29-8.23-4.12-9.51a2.24 2.24 0 0 0 -2.81.74c-.49.61.08 1.36.46 1.65a5.16 5.16 0 0 1 2.11 3.3 5.57 5.57 0 0 1 -.21 2.46 5.75 5.75 0 0 1 -1.45 2 3.76 3.76 0 0 1 -2.29 1 42.34 42.34 0 0 1 -7.6-.35c-.51 0-1.37-.19-1.72.19s0 2 .05 2.49c0 1.06.76 1.4 1.58 1.45a80.92 80.92 0 0 0 8.81 0 7.85 7.85 0 0 0 7.19-5.42z"
         id="path56"
         style="fill:#ffffff" />
      <path
         d="m470.77 470.58c-2.32 3.26-4.51 6.61-7 9.76-3.65 4.64-3.32 9.64-1.78 14.83.23.76.53 1.5.77 2.25a4.07 4.07 0 0 1 .1.7c-4 .4-9.52-3.79-9.06-8.22.43-4.16 1.67-7.92 4.53-11a94.81 94.81 0 0 1 8.25-7.91c1-.8 3.37-.86 4.73-1.19z"
         id="path58"
         style="fill:#ffffff" />
      <path
         d="m455.31 430.39c3.05-1.53 5.71-2.76 8.26-4.16 4.73-2.62 9.25-5.36 11.41-10.91.91-2.35 3.51-4.06 5.66-5.91a4.77 4.77 0 0 1 -.47 1.29c-2.47 5.09-5.07 10.14-7.43 15.27a19 19 0 0 1 -7.5 8.5c-3 1.86-5.14 2.4-7.7-.15-1.02-.95-1.05-2.58-2.23-3.93z"
         id="path60"
         style="fill:#ffffff" />
      <path
         d="m510.35 465c-2.25-3.28-4-4-5.24-6.66a26 26 0 0 1 -2-17c.62-2.45-.25-5.27-.93-8a5 5 0 0 0 -.61 1.25c-.95 5.58-1.77 11.2-2.83 16.75-.77 3.78-1.91 7.93-.38 11.49 1.36 3.26 3.95 3.81 7.52 3.23 1.38-.3 2.73-.7 4.47-1.06z"
         id="path62"
         style="fill:#ffffff" />
      <path
         d="m506.09 325.63c-1 2.68-1.52 4.94-2.62 6.89a6.19 6.19 0 0 1 -1.83 2.08 6.11 6.11 0 0 1 -5.35.83 6 6 0 0 1 -2.39-1.43 64.11 64.11 0 0 1 -6.54-7.34c-.5-.61-.6-2.35-.17-2.7a5 5 0 0 1 3.08-.57 5.44 5.44 0 0 1 2.36 1.06c3.31 2.23 6.89 2.48 10.66 1.54.71-.1 1.36-.15 2.8-.36z"
         id="path64"
         style="fill:#ffffff" />
      <path
         d="m455.11 310c.9 1.26 2.86 4.3 3.74 5.57 1.88 2.73 3.76 5.44 5.57 8.21.68 1 1.56 2.34-.21 3.15-1.42.66-3 .86-3.86-1-1.68-4-2.89-7-4.46-11a25.65 25.65 0 0 1 -.54-2.92z"
         id="path66"
         style="fill:#ffffff" />
      <path
         d="m341.22 246.48a32.59 32.59 0 0 1 6.2 1c3.2.84 6.51 1.26 9.74 2 1.2.28 2.64.41 2.76-.84.14-1.56-.22-3.16-2.24-3.3-4.3-.23-8.62-.37-12.93-.49a6.83 6.83 0 0 0 -1.87.51z"
         id="path68"
         style="fill:#ffffff" />
      <path
         d="m168.11 267.21c6.92-3.72 12.14-8.76 9.56-15.91-3.33-9.12-1.51-18.21-.64-27.25 2.6-26.73 13-50.58 33.53-70.53 2.82-2.73 5.2-5.81 8-8.56 19.67-19.36 44.57-29.91 73.1-33.78a37.43 37.43 0 0 1 28.34 7.32c6.51 5 8.13 11.32 4.3 18.23-1.57 2.85-3.56 5.52-5.37 8.31 7.39 8.73 24 9.47 33.06 1.32a34.83 34.83 0 0 0 4.26-4.6c4.15-5.38 3.41-10.14-2.09-14.44-1.73-1.36-4.33-2.39-2-5.68 2.32 1 4.71 2.25 7.21 3.25 4.48 1.81 6 1.1 6.47-3.15 1.37-11.52-3.71-21.64-11.79-29.57-4.75-4.66-13.27-7.34-20.59-8.58-11.27-1.92-17.53-3.29-29.49-2.29-7 .75-10.36 1.24-12.95 2.2-13.72 5.13-27.13 10.72-39 19-3 2.1-6.8 3.26-10.65 4.33.66-4.4 3.45-7.22 6.91-9.38 24.9-15.59 51.91-25 83-22.61 6.17.5 12.6.41 17.33-3.53a69.64 69.64 0 0 0 11.83-12.55c1-1.48-.66-1.52-.66-1.52-3.56.12-7.12.07-10.64.44-2.17.21-3.88.7-5.07-1.72s0-3.28 1.78-4.57c10.29-7.34 11.73-18.61 3.7-27.86a28 28 0 0 0 -23.1-10.07c-4.6.12-5.16.85-3.78 4.87 2.6 7.55 4.27 15.17-1.31 22.2a46.48 46.48 0 0 1 -19.53 14.06c-11.38 4.55-23.07 8.59-34 13.85-15.77 7.57-28.16 19-40 30.75-18.9 18.71-35.49 38.9-47.66 61.79-15.31 28.81-21.8 58.88-15.3 90.67.36 1.62 3.91 8.35 3.24 15.56zm33.4-116.88-8-.44c2.66-2.87 3.64-5.38 5.92-7.25.76-.63 2.94-.46 4.05.07.64.3.81 2.08.59 3.09-.41 1.81-1.74 2.2-2.56 4.53zm12-26.23c-.19-.39.63-.93 1.17-.93l9.85.92c-.11.83-4.53 4-7.74 6.12zm1.29 11.1c-2.68 4.47-4.47 4.84-8.24 1.73 1.44-4.31 4.5-3.5 8.2-1.73z"
         id="path70"
         style="fill:#ffffff" />
      <path
         d="m105 261.52c1.59-3.13 2.77-5.44 4-7.76 1.7-3.31 2.69-7.2 5.29-9.8 3.45-3.44 8.49-3.32 13.26-1.51 6.31 2.4 11.18 6.14 13.33 12.12 4.37 12.14 8.46 24.39 12.89 36.48 7.21 19.48 15.47 38.63 29.18 55.3 7.71 9.42 16.65 18 25 27 2.68 2.84 5.52 5.57 8.19 8.43 2.07 2.23 2.93 1.7 10.36 1.7 13.37 0 7.81-4 2.33-9.68-13.35-14-22.29-30.34-32.25-46.1a69.5 69.5 0 0 1 -10.3-32c-.36-4.85.83-10 2.49-14.73 1.8-5.09 5.15-5.56 9.85-2.26 3.11 2.19 6.1 4.52 9.2 6.81 10.41-7.84 6.56-18.92-2.65-23.77-5-2.64-8.72-2.34-14-.88-9.14 2.54-12.09 9.61-16.82 15.51-1 1.26-1.88 2.62-2.8 3.9-7.46-3.51-7.92-4.55-6.91-11.27 1.58-10.14-2.4-18.89-9.43-26.58a57.35 57.35 0 0 0 -18.17-13.88c-15.24-7.13-32.8-.76-37.26 14-1.92 6.65.06 12.54 5.22 18.97z"
         id="path72"
         style="fill:#ffffff" />
      <path
         d="m362.81 76.79c3.95.82 7.42 3.09 9.18 3.67 7.52 2.48 10.87 3.88 18.25 6.76a43.85 43.85 0 0 1 21.93 18.48c6.28 10.37 2.53 25.32-7.65 32-4.91 3.21-9.74 2.2-14.53-.34-4.44-2.34-4.68-6.32-4.21-10.62 1.45-5.86 10.12-5.27-.79-6.09-2.76-.23-5 2.36-5.86 5.73a37.7 37.7 0 0 0 -.79 12.21 15.12 15.12 0 0 0 3.42 7.73 35.65 35.65 0 0 0 7.66 6.33c11.78 8 29.6 4.17 36.27-8.51 2.51-4.77 3.29-10.82 3.56-16.32.87-17.13-6.66-30-21.11-39.14-11.13-7-22.43-13.53-35.95-14.41a36.52 36.52 0 0 0 -8.57.87c-1.96.31-.81 1.65-.81 1.65z"
         id="path74"
         style="fill:#ffffff" />
      <path
         d="m255.24 379.94c2.22.54 4.5 1.63 6.66 1.54 9.24-.38 18.4-1.65 27.68-1.59a57.39 57.39 0 0 1 32.16 9.92c11.56 7.82 14.46 23.89 6.61 34.23-3.79 5-9.46 5.8-15.79 5.1-5.86-.63-8-4.44-9.46-8.84-2.58-6.6 7.16-9.39-3.15-7.39-1.13.37-5.87 3-4.16 9.53a57.26 57.26 0 0 0 5.16 11c1.74 2.65 3.9 6.09 6.92 7.55a46.7 46.7 0 0 0 11.18 3.35c13.64 2.58 33.58-9.1 35.05-21.94.48-5.62.39-13.55-1.87-19.05-7-17.12-23-25.24-42.75-28.78-15.21-2.71-29.74-3.17-44.68 1-3.13.93-9.56 4.37-9.56 4.37z"
         id="path76"
         style="fill:#ffffff" />
      <path
         d="m165.69 174.52c-4.27-7.25-5.66-17.93-4.2-25.69 2.56-13.5 7.11-23.88 9-37.48 1.45-10.42-.56-20.26-9-27.79-5.84-5.23-12.42-4.32-15.71 2.87-2.21 4.81-3.23 10.16-5 16-3.91-5.15-8.27-10-7.67-17.07.66-7.9 3.46-15.14 11.66-17.54 11.2-3.29 22.14-3.13 31 6.56 7.86 8.68 14.15 17.93 12.47 30.38a19.24 19.24 0 0 1 -2.24 6.64c-5.18 9.43-10.69 18.64-15.74 28.11-2.93 5.5-3.49 11.47-3.1 17.81.37 5.68 1.65 11.08-1.47 17.2z"
         id="path78"
         style="fill:#ffffff" />
      <path
         d="m245.07 388.12a17.06 17.06 0 0 0 4 1.29c7.82 2 15.62 4.08 23.41 6.22a14.23 14.23 0 0 1 3.62 1.69c4.36 2.68 7.51 7.58 5.6 13.47-2.08 6.44-8.75 7.31-13.93 6.14a4.34 4.34 0 0 1 -.95-.57c.84-.53 1.49-.9 2.13-1.33 5.48-3.55 6.09-8.46 1.49-13.11-3.43-3.47-7.75-5.49-12.15-7.28-3.2-1.31-6.43-2.53-9.63-3.81-3.73-1.52-3.59-2.71-3.59-2.71z"
         id="path80"
         style="fill:#ffffff" />
      <path
         d="m205.78 167.34c5.84-.67 9.45-2.13 12.24-5.54 6.17-7.52 13.16-14.23 22.41-19 7.32-3.78 20.31-3.76 27.06.92 5.68 3.93 7.13 9.94 3.86 16.1-1 1.78-2 3.52-3 5.32 10.45 2.74 23.55-2.22 24.58-14.51 1.12-13.32-11.22-27.85-27.82-25-7.44 1.29-14.66 4.24-21.59 7.18-12.44 5.27-22.81 12.83-29.68 23.83-2.13 3.44-4.91 6.56-8.06 10.7z"
         id="path82"
         style="fill:#ffffff" />
      <path
         d="m241.71 378.27c4.76-3.4 2.07-8.76 1.86-13-.28-6.56 4.07-11.24 8.12-14.93 1.82-1.69 8-4 16.17 4.39 1.19-2.14 2.22-5.18 1.57-7.37-2.92-9.88-15.72-13.08-23.28-6.12-10.52 9.64-11 22.89-4.44 37.03z"
         id="path84"
         style="fill:#ffffff" />
      <path
         d="m181.24 253.15c3 .46 4.42-.37 4.21-3.11-1.29-17 3.77-33.22 7.84-49.5 1.3-5.17 3.68-9.7 6.14-14.68.8-1.56 2.59-1.49 2.61-3.22 0-1.07-2.47-4.44-3.14-5.51a5.26 5.26 0 0 0 -2.06 2.51c-2.1 4.24-3.88 8.62-5.69 13-7.73 18.64-12.19 37.76-10.29 57.79.07.87.25 1.75.38 2.72z"
         id="path86"
         style="fill:#ffffff" />
      <path
         d="m188 253.27c-.39.9 2.16 2.46 3.35.48 7.4-12.29 13.15-17.35 21.85-24.75a44.27 44.27 0 0 1 10-6.27c1-.37 2.19 0 3-1.11.49-.73 1.16-2.26 1.92-3.78 1.22-2.45-1.85-1.47-2.44-1.23-2.58 1.08-3.69 2.5-6.24 3.88-10.9 5.94-21 14.91-29.63 29.71-.44.66-1.44 2.33-1.81 3.07z"
         id="path88"
         style="fill:#ffffff" />
      <path
         d="m83.31 416.1c-3.43-9.77-2.77-42.32 2.92-43.16.77-.1 1.67-1.4 1.56-2.77-.1-.87-6.37 2.08-7.43 4.78-2.86 8.57-2.86 28.08-2 33.5.08.75 5.31 9.93 4.95 7.65z"
         id="path90"
         style="fill:#ffffff" />
      <path
         d="m274.46 221.29c0-1.78.47-4.23 1-4.92.87-1.16.58-.43 3.9 0 10.73 1.18 32.7 24.7 41.46 28 5.47 2.51 15.71 3.14 21.29 3.91 6 .72 14.46 5.41 16.17 6.81 1.07.92-.25 4-1.24 4.93-4.78-2-17.88-5.73-25-5.68-19.6-.59-39.36-23.53-48.82-29.56-7.01-3.86-8.74-3.49-8.76-3.49z"
         id="path92"
         style="fill:#ffffff" />
      <path
         d="m202.74 116.48c8.53-10.46 14.84-21.68 16.19-30.15a17.19 17.19 0 0 0 -4.16-15c-.66 4.59-1.4 8.49-1.76 12.51a46.92 46.92 0 0 1 -5.42 18.37c-.51.94-3.59 6.8-3.75 8z"
         id="path94"
         style="fill:#ffffff" />
      <path
         d="m370.82 224c-2.74-1.77-3.21-3.45-1.57-5.61a3.63 3.63 0 0 1 5-1c1.63.84 2 2.07 1.21 4.27-.11.33-.23.65-.36 1-1.2 2.98-1.62 3.12-4.28 1.34z"
         id="path96"
         style="fill:#ffffff" />
      <path
         d="m326.75 213.88c.79-2.32 2.19-3 4.51-2.24s3.33 2.19 2.67 4.16c-.84 2.57-2.81 3.55-5.4 2.68-2.01-.67-2.6-2.17-1.78-4.6z"
         id="path98"
         style="fill:#ffffff" />
      <path
         d="m315.82 220.57c-.65 0-1.7-1.37-1.74-2.13a3.56 3.56 0 0 1 2.42-3.82 6.83 6.83 0 0 1 6.28 1.2 3.74 3.74 0 0 1 .87 3.05 3.25 3.25 0 0 1 -.87 1.26 3.34 3.34 0 0 1 -1.35.72 31.14 31.14 0 0 1 -5.61-.28z"
         id="path100"
         style="fill:#ffffff" />
      <path
         d="m384 226.43c-.6 1.76-1.94 2.57-3.55 2.06-2-.62-3-2.9-2.2-5.18.55-1.68 1.9-2.67 3.13-2.31a4.26 4.26 0 0 1 2.62 5.43z"
         id="path102"
         style="fill:#ffffff" />
      <path
         d="m322.86 228.71c-.78 2.27-1.26 2.63-2.78 2.12-2.79-1-3.94-2.69-3.19-4.88s2.3-2.82 4.43-2.08 2.53 1.97 1.54 4.84z"
         id="path104"
         style="fill:#ffffff" />
      <path
         d="m374.43 228.63c2.09.72 2.85 2.1 2.2 3.94s-2 2.38-3.85 1.73a3.11 3.11 0 0 1 -2.13-4.22c.56-1.66 1.8-2.14 3.78-1.45z"
         id="path106"
         style="fill:#ffffff" />
      <path
         d="m380.32 42.3c10.08 6.52 10.22 13.47.36 19.17-3.25 1.89-7.13 2.69-10.74 4-.78.27-1.62.43-3.18.83a19.7 19.7 0 0 0 2.94 1.7c9.49 3.12 20.94-1.38 25.74-10.08a11.61 11.61 0 0 0 1.32-7.22 12.33 12.33 0 0 0 -3.22-6.76c-3.2-3.4-8.09-4.06-13.22-1.64z"
         id="path108"
         style="fill:#ffffff" />
      <path
         d="m397.05 72.84c6.21 1.11 12.46 2.11 18.63-.13 3.69-1.33 6.52-3.59 7.42-8.3-3.3 1.26-6.21 2.21-9 3.45a36.41 36.41 0 0 1 -14.73 3.2c-.87 0-3.26 1.31-4.12 1.65z"
         id="path110"
         style="fill:#ffffff" />
      <path
         d="m433.7 59.13c2.32-3.86 1.88-6.22-1.47-7.9-2.64-1.33-5-.72-6.86 1.8-1.51 2-1.21 3.78 1.09 6 .34.34.68.67 1 1 3.38 2.97 3.98 2.88 6.24-.9z"
         id="path112"
         style="fill:#ffffff" />
      <path
         d="m446.21 66.25c1.75-2.91 1.25-5-1.64-6.77-3.06-1.84-5.27-1.56-6.77.88-2 3.19-1.24 6.13 2 8.1 2.47 1.54 4.59.81 6.41-2.21z"
         id="path114"
         style="fill:#ffffff" />
      <path
         d="m438.47 53.09c1.08 0 2.62.51 3.36-.05a4.32 4.32 0 0 0 1.65-5.26 8.12 8.12 0 0 0 -2.41-3.21 8.22 8.22 0 0 0 -3.64-1.71 4.35 4.35 0 0 0 -3.53 1.59 3.92 3.92 0 0 0 -.09 3.63c1.12 1.75 2.84 3.12 4.66 5.01z"
         id="path116"
         style="fill:#ffffff" />
      <path
         d="m409.84 53.46c-1.33 2.21-1 4.34 1 5.59 2.43 1.55 5.72.55 7.43-2.29 1.28-2.07 1.12-4.38-.35-5.36a5.89 5.89 0 0 0 -8.08 2.06z"
         id="path118"
         style="fill:#ffffff" />
      <path
         d="m426.53 71.06c-1.7 2.81-1.64 3.63.23 4.77 3.45 2.08 6.27 1.75 7.91-1 1.54-2.56.92-4.88-1.73-6.46s-4.29-.87-6.41 2.69z"
         id="path120"
         style="fill:#ffffff" />
      <path
         d="m424 41.55c-2.62-1.57-4.75-1.14-6.13 1.18s-.72 4.24 1.61 5.61c2.48 1.48 4.9.89 6.35-1.51 1.28-2.07.68-3.83-1.83-5.28z"
         id="path122"
         style="fill:#ffffff" />
      <path
         d="m29.78 270.16 8.56-9.3c5.55-6 12.83-7.11 20.42-6.75 8.81.41 16.7 3.8 24.11 8.27s14.85 9.37 22.39 13.89a13.8 13.8 0 0 1 6.89 9.1c1.36 5.68 3.14 11.22 4.69 16.83 1.26 4.63 7.54 7.52 11.2 5a4.28 4.28 0 0 0 1.86-2.75 27.28 27.28 0 0 0 -.63-7.75c-1.92-7-3.55-14-3.17-21.31a11.19 11.19 0 0 1 .73-3.93c1.64 2 3.43 5.56 4.86 7.69 2.37 3.55 4.45 7.29 6.78 10.88 1 1.47 2.43 2.64 3.38 4.13a6 6 0 0 1 1 3.34c0 1.34-1.17.58-1.17.58-3.14-3.75-4.85-8-9.56-11.42-.65-.48-2.46 1.25-2.46 2.05 0 2.55 4.15 6.68 6.52 9.72a5.16 5.16 0 0 1 .74 5.62c-1.17 3-2.56 5.86-3.55 8.88a56.9 56.9 0 0 0 -1.28 6.9c-3-4.54-5.82-2.08-8.88.08 0 0-1.78-7.77-4-8.21-.53-.11-1.61 1.42-1.61 1.42 1.15 2.89 2.37 5.47 3.16 8.16.36 1.23-.24 2.67-.29 4.05 0 1-.63.17-.63.17-.77-1.28-1.5-2.6-2.34-3.84-4.78-7-9.12-14.29-14.52-20.75a41.65 41.65 0 0 0 -17.98-13.07c-3.62-1.27-7.67-1.31-11.49-2.07-5.5-1.09-11-1.53-16.4.53-7.69 2.92-14.79 6.84-20.2 13.21-6.66 7.84-4.48 20.77 4.33 26.05a12 12 0 0 0 3.46 1.35c7.95 1.75 17.33-4.7 18.43-12.7a69 69 0 0 0 1-9.29c0-5.26 3.16-7.88 7.54-9.55 8.07-3.1 21.79 1.94 26 9.47 4.34 7.84 2.21 15.59-5.9 20.66.07-.82.1-1.45.2-2.09.32-1.92.72-3.83 1-5.76.84-5.34-.48-8-5.31-10.69-5.42-3.06-9.87-3.09-13.68.36a25.17 25.17 0 0 0 -4.72 6c-1.79 3.1-3.14 6.47-4.69 9.68-3 6.42-8.8 9.82-15.83 9.2-8.85-.79-23.35-8.38-25.8-21.48-.83-4.47-2.71-8.89-1.31-15.86.62-3.35 2.71-6.32 3.35-9.74 1.65-5.24 4.86-8.55 10.54-9.27 1.34-.18 2.54-1.17 4-1.9-2.64-3.13-5.91-3.43-9.74-3.79zm73.43 23.29s1.17 1.29.67-.76c-1.42-5.84-5.38-9.34-7.53-9.94a1.75 1.75 0 0 0 -1-.42q-12.58-2-25.19-4a26.57 26.57 0 0 0 -3.34-.06 16.22 16.22 0 0 0 10 2.49 9.44 9.44 0 0 1 3.43.33 53.51 53.51 0 0 1 16.39 8.27 68.39 68.39 0 0 0 6.57 4.09zm27.22 17.48c-1.7.08-3.14.06-4.57.22-.6.07-1.67.55-1.65.76a3.43 3.43 0 0 0 .84 2.16c1.95 1.76 4.41.51 5.38-3.14z"
         id="path124"
         style="fill:#ffffff" />
      <path
         d="m73.87 154.23c-.18 5.89-2.23 13.46 2.71 18.71 4.56 4.32 5 7 7.21 10.61 1.75 2.82-.3 6.92-4 9.13a20.05 20.05 0 0 1 -19.89.95c-2-.92-4-3.56-5.72-5.69-17.52-22.18-5.87-59.13 26-67.39 17.15-4.42 31.22.53 43.81 12 14.39 13.14 21.16 29.38 20.78 48.83-.14 6.92.12 13.88.58 20.79.17 2.61 3 12.07 4 15.53a74.78 74.78 0 0 1 -.15-8.9c1.62-18.38 3.11-36.78-3.13-54.7-9.29-26.71-28.34-42.38-55.74-47.37-16.46-3-32 2.54-44.65 12.73-5.53 4.45-11.2 8.75-14.54 15.45a163.57 163.57 0 0 0 -8.91 20.65c-3.09 9.27-5.25 18.85-7.93 28.27-3.3 11.3-.75 4.17 2.7 5.68 5.22 2.33 10.29 1 14.3-4a69.08 69.08 0 0 1 6.34-7.64 4.89 4.89 0 0 1 -.45 3.31c-6.2 12.33-1.64 22.2 8.2 29a77.72 77.72 0 0 0 17.93 9.46c16 5.62 28.39-4.43 34.7-16.14 3-5.58 2.17-11.66 2.68-17.55.35-4.28.73-8.55.85-12.86.17-4-7.56-4.16-10.5-4.7-6.3-1.17-9.4-2.19-13-7.19-.5-.67-1.8-3.43-2.37-4a6.84 6.84 0 0 1 -1.81-2.97z"
         id="path126"
         style="fill:#ffffff" />
      <path
         d="m469.12 201c-4.23-1.55-7.82-4.87-12.9-1.51-3 2-6.35 3-9.57 4.21-2.51 1-4.95-1.9-5.6-5.88-1.13-6.93 1.23-13.06 4.44-18.68 1.1-1.94 3.63-2.92 5.61-4 20.63-11.07 44.47 8.41 42.24 40-1.21 16.95-8.43 28.86-20 37.87-13.25 10.28-26.8 12.76-40.83 7.85a144.67 144.67 0 0 0 -15.25-4.34c-4.2-.9-11-.83-13.75-.72.71 1.19 6.87 2.44 8 2.7 12.68 3.11 25.91 11.51 40.54 9.91 21.79-2.37 38.09-16.39 48.78-40.67 6.41-14.57 5.38-29.46 1.24-43.59-1.81-6.18-2.44-13.3-6.45-18a118.65 118.65 0 0 0 -12.77-13.15c-5.94-5-12.34-9.29-18.49-14-1.88-1.44-3.34-.88-4.81 1.22a13 13 0 0 0 -.78 14.22 61.69 61.69 0 0 1 3.92 7.68 6.3 6.3 0 0 1 -2.3-1.19c-7.35-8.65-15.69-6.72-23.15.82a79.78 79.78 0 0 0 -11.5 14.44c-8.2 13.49-4.1 27.39 2.78 36 3.28 4.1 7.91 4.75 12.06 6.6 3 1.33 6 2.68 9.11 3.81a2.06 2.06 0 0 0 2.26-1.15 69.94 69.94 0 0 0 3.87-7.51 21.37 21.37 0 0 1 10.91-11 16.4 16.4 0 0 0 1.8-1 1.37 1.37 0 0 0 .59-.94z"
         id="path128"
         style="fill:#ffffff" />
      <path
         d="m87.44 152.6c1-2.89 1.58-5.66 2.93-7.95 4.6-7.8 12.68-10 21.12-6.34 12.67 5.47 20.32 15.23 23.89 28.24 1.78 6.55 2.14 11.24 3.47 17.92.18.82 2.9 9.17 3.42 9.93.44-1.42-.14-7.14-.21-7.92-1.35-17.25-5.77-33.4-17.26-46.91-5.37-6.31-11.63-11.35-19.75-13.67a18.19 18.19 0 0 0 -14.88 1.67c-2.64 1.58-5.66 2.88-7.72 5.08-5.36 5.71-4.38 11.92 2.36 18a28.88 28.88 0 0 0 2.63 1.95z"
         id="path130"
         style="fill:#ffffff" />
      <path
         d="m412.47 482.86a19.59 19.59 0 0 1 3.26.59c3.31 1.25 4.7 4.21 3.85 7.71a15.9 15.9 0 0 1 -9.26 11.08c-2.4 1.13-5 1.88-7.45 2.84-.31.12-1.39 1-1.22 1.28a6.21 6.21 0 0 0 1.45-.21c6.55-1.68 12.46-4.46 16.89-9.79a15.84 15.84 0 0 0 3.94-8.51c.23-2.1.22-4.52-1.17-6.14a7.79 7.79 0 0 0 -2-1.94c-2.56-1.69-5.84-1-7.74 2a12 12 0 0 0 -.55 1.09z"
         id="path132"
         style="fill:#ffffff" />
      <path
         d="m468.18 214.29c1.84 1.64 3.71 2.79 5 4.58 4.48 6.1 4 14.12-.84 21.09-7.24 10.49-16.3 15.31-26.67 15.57-5.21.12-10.37-.76-15.56-1.09-.65 0-2.74 1.42-3.43 1.73.47.61 2.2.78 2.79.9 12.88 2.78 25.75 2.47 38.53-5a38.6 38.6 0 0 0 15-15.13 21.86 21.86 0 0 0 2.62-14.22c-.46-2.82-.63-5.93-1.7-8.36-2.76-6.31-7.53-6.85-13.71-2q-1.02.87-2.03 1.93z"
         id="path134"
         style="fill:#ffffff" />
      <path
         d="m111.67 210.46c1.77 1.4 2.34-4 3.24-5.22 3.6-4.8 7.86-3 12.16 3.16 3 4.36 8.65 14.36 15.2 17.22-3.47-4.41-5.89-13-6.33-17.75-.63-8.36-5.56-12.32-11.6-16.32-5.5-3.65-16.62.15-17.51 6.1-.14.93 0 2.45 0 3.38a13.91 13.91 0 0 0 4.84 9.43z"
         id="path136"
         style="fill:#ffffff" />
      <path
         d="m220.7 388h18.22q2.67 16.44 13.78 33.33a103.26 103.26 0 0 0 29.3 28.38 74.56 74.56 0 0 0 39.55 11.11q23.1 0 40-12.44t16.88-37.32q0-18.66-12-30.22-11.55-11.55-36-20l-31.53-11.1q-38.65-13.33-57.31-34.21-18.22-20.88-18.22-55.1 0-28 12.88-48.43a84.58 84.58 0 0 1 35.55-32q23.1-11.12 52.88-11.11 18.21 0 39.1 7.55c1.18.3 3.85 1.19 8 2.67a50.22 50.22 0 0 0 12.89 1.78c4.15 0 7-.75 8.44-2.23a13.32 13.32 0 0 0 4-6.22h14.67l4.44 76h-18.22q-6.66-30.66-27.1-48.87a68.88 68.88 0 0 0 -48-18.66q-23.1 0-38.66 12.44t-15.55 32q0 14.22 8.44 24 8.89 9.33 17.78 13.33 9.33 4 26.66 10.22l39.54 14.22q67.09 24.44 67.09 86.2 0 32.88-15.1 55.54a94.67 94.67 0 0 1 -39.1 33.3 122.29 122.29 0 0 1 -50.21 10.66q-21.33 0-49.77-8.89-2.22-.44-8.88-2.22a36.63 36.63 0 0 0 -11.14-2.22q-9.78 0-13.33 8h-14.67z"
         id="path138"
         style="fill:#ffffff" />
    </g>
    <path
       d="m509.25 13.53h1v574h-1z"
       id="path142"
       style="fill:#ffffff" />
    <path
       d="m50.25 317.53h1v270h-1z"
       id="path144"
       style="fill:#ffffff" />
    <path
       d="m50.25 13.53h1v78h-1z"
       id="path146"
       style="fill:#ffffff" />
    <path
       d="m55.25 115.53h3v63h-3z"
       id="path148"
       style="fill:#ffffff" />
    <path
       d="m50.25 121.53h1v57h-1z"
       id="path150"
       style="fill:#ffffff" />
    <path
       d="m55.25 211.53h3v22h-3z"
       id="path152"
       style="fill:#ffffff" />
    <path
       d="m50.25 211.53h1v22h-1z"
       id="path154"
       style="fill:#ffffff" />
    <path
       d="m55.25 10.53v3 75h3v-75h248v-3z"
       id="path156"
       style="fill:#ffffff" />
    <path
       d="m55.25 6.53h251v1h-251z"
       id="path158"
       style="fill:#ffffff" />
    <path
       d="m342.25 6.53h163v1h-163z"
       id="path160"
       style="fill:#ffffff" />
    <path
       d="m342.25 10.53v3h160v574h-393v3h396v-3-574-3z"
       id="path162"
       style="fill:#ffffff" />
    <path
       d="m101.25 593.53h404v1h-404z"
       id="path164"
       style="fill:#ffffff" />
    <path
       d="m58.25 587.53v-270h-3v270 3h19v-3z"
       id="path166"
       style="fill:#ffffff" />
    <path
       d="m55.25 593.53h21v1h-21z"
       id="path168"
       style="fill:#ffffff" />
  </g>
</svg>
